<svg xmlns="http://www.w3.org/2000/svg" viewBox="0 0 128 128" fill="none">
  <!-- Red rounded rectangle background -->
  <rect width="128" height="128" rx="18" fill="#ec0016"/>

  <!-- White inset border -->
  <rect x="9" y="9" width="110" height="110" rx="12" fill="none" stroke="#ffffff" stroke-width="5"/>

  <!-- "D" - clean geometric D -->
  <path d="M26 32 h14 c18 0 30 13 30 30 c0 17 -12 30 -30 30 H26 Z" fill="#ffffff"/>
  <path d="M36 42 h4 c12 0 20 9 20 20 c0 11 -8 20 -20 20 H36 Z" fill="#ec0016"/>

  <!-- "B" - clean geometric B -->
  <path d="M76 32 h14 c10 0 16 6 16 14 c0 6 -3 10 -8 12 c6 2 10 7 10 14 c0 9 -7 16 -18 16 H76 Z" fill="#ffffff"/>
  <path d="M86 42 h4 c4 0 8 3 8 7 c0 4 -4 7 -8 7 H86 Z" fill="#ec0016"/>
  <path d="M86 64 h4 c5 0 10 3 10 8 c0 5 -5 8 -10 8 H86 Z" fill="#ec0016"/>

  <!-- Filter badge - dark circle, bottom right -->
  <circle cx="100" cy="100" r="28" fill="#1a1a2e"/>
  <circle cx="100" cy="100" r="26" fill="#1a1a2e" stroke="#ffffff" stroke-width="2" opacity="0.3"/>

  <!-- Symmetrical funnel icon centered in badge -->
  <polygon points="84,86 116,86 106,100 106,110 94,110 94,100" fill="#ffffff"/>
</svg>
